# Blender v2.80 (sub 75) OBJ File: ''
# www.blender.org
mtllib untitled.mtl
o Cube.009
v 0.000000 -1.388042 0.000000
v 0.000000 1.388041 -0.000000
v -0.816495 0.000000 0.816495
v -0.816495 -0.000000 -0.816495
v 0.816495 -0.000000 -0.816495
v 0.816495 0.000000 0.816495
vn 0.8619 -0.5070 0.0000
vn -0.8619 -0.5070 0.0000
vn 0.0000 -0.5070 -0.8619
vn 0.0000 0.5070 -0.8619
vn -0.8619 0.5070 -0.0000
vn 0.0000 -0.5070 0.8619
vn 0.0000 0.5070 0.8619
vn 0.8619 0.5070 -0.0000
usemtl Material.001
s 1
f 5//1 6//1 1//1
f 3//2 4//2 1//2
f 4//3 5//3 1//3
f 4//4 2//4 5//4
f 3//5 2//5 4//5
f 6//6 3//6 1//6
f 6//7 2//7 3//7
f 5//8 2//8 6//8
